<?xml version="1.0" encoding="utf-8"?>
<!-- Generator: Adobe Illustrator 27.5.0, SVG Export Plug-In . SVG Version: 6.00 Build 0)  -->
<svg version="1.1" xmlns="http://www.w3.org/2000/svg" xmlns:xlink="http://www.w3.org/1999/xlink" x="0px" y="0px"
	 viewBox="0 0 500 500" style="enable-background:new 0 0 500 500;" xml:space="preserve">
<g id="BACKGROUND">
	<rect style="fill:#88A847;" width="500" height="500"/>
</g>
<g id="OBJECTS">
	<g>
		<defs>
			<rect id="SVGID_1_" width="500" height="500"/>
		</defs>
		<clipPath id="SVGID_00000029034741267789704790000014685894578109201084_">
			<use xlink:href="#SVGID_1_"  style="overflow:visible;"/>
		</clipPath>
		<g style="clip-path:url(#SVGID_00000029034741267789704790000014685894578109201084_);">
			<g>
				<g>
					<g>
						<path style="fill:#EDB380;" d="M350.45,316.17c25.18-8.41,43.69-35.88,43.51-64.61c-0.18-28.73-19-56.42-44.29-65.12
							c-17.22-5.92-36.05-3.62-53.25-9.61c-16.46-5.73-29.98-18.5-45.03-27.8c-24.56-15.18-54.84-20.91-81.29-10.91
							c-26.45,10.01-47.6,37.36-48.09,67.9c-0.27,16.83,5.35,33.36,5.01,50.18c-0.3,14.72-5.16,28.98-5.04,43.7
							c0.16,18.74,8.49,36.64,19.81,50.92c18.52,23.36,45.6,38.5,73.72,41.22c28.12,2.73,56.97-6.98,78.55-26.45
							C310.74,350.57,321.8,325.74,350.45,316.17z"/>
						<path style="fill:#FACF9B;" d="M361.02,199.35c25.01,12.45,38.53,47.08,29.23,74.88c-6.04,18.04-19.81,31.75-34.64,42.22
							c-14.82,10.47-31.11,18.42-45.68,29.28c-15.81,11.79-29.62,27-47.1,35.62c-29.27,14.44-64.92,7.73-92.74-10.37
							c-21.91-14.25-41-37.45-42.88-64.92c-1.22-17.84,4.88-35.46,3.73-53.31c-0.8-12.33-5.03-24.19-6.02-36.51
							c-2.42-30.16,16.26-59.43,41.68-71.66s55.9-8.92,81.11,4.42c17.52,9.27,32.85,22.99,50.56,31.83
							C315.65,189.53,336.86,187.33,361.02,199.35z"/>
					</g>
					<g>
						<path style="fill:#EDB380;" d="M500,35.02v125.83c-4.8-7.34-7.86-15.8-13.05-22.88c-5.43-7.41-13.09-13.17-17.42-21.26
							c-7.15-13.36-3.65-29.97,2.68-43.73C478.81,58.63,488.36,45.67,500,35.02z"/>
						<path style="fill:#FACF9B;" d="M500,40.61v112.12c-0.01-0.02-0.03-0.04-0.04-0.06c-6.23-8.87-9.21-19.75-15.69-28.44
							c-5.26-7.06-12.9-12.89-14.99-21.44c-1.78-7.3,0.96-14.89,4.12-21.71C480.22,66.38,489.23,52.72,500,40.61z"/>
					</g>
					<g>
						<path style="fill:#EDB380;" d="M306.38,500c-1.67-4.55-3.66-8.96-6.25-13.05c-4.71-7.44-11.73-13.8-20.27-15.93
							c-12.58-3.14-26.14,3.72-33.76,14.2c-3.26,4.48-5.59,9.49-7.22,14.78h1.94h65.29"/>
						<path style="fill:#FACF9B;" d="M306.11,500h-65.29c2.24-5.89,5.38-11.37,9.65-16.06c5.16-5.66,12.47-10.11,20.08-9.27
							c4.61,0.51,8.78,2.88,12.73,5.3c7.89,4.84,15.66,10.24,21.19,17.65C305.04,498.39,305.59,499.18,306.11,500z"/>
					</g>
					<g>
						<path style="fill:#EDB380;" d="M67.01,0H0v31.38v3.22c3.86-1.31,7.51-3.51,11.55-4.05c6.12-0.83,12.06,2.2,18.18,3
							c12.21,1.59,24.14-6.09,31.15-16.22c3.67-5.31,6.26-11.2,8.31-17.33H67.01z"/>
						<path style="fill:#FACF9B;" d="M0,0h67.01c-0.64,1.16-1.32,2.29-2.04,3.41c-6.5,10.09-17.28,18.23-29.28,18.34
							c-5.37,0.05-10.78-1.48-16.06-0.5C12.46,22.58,6.48,28.35,0,31.38V0z"/>
					</g>
				</g>
				<g>
					<g>
						<g>
							<path style="fill:#5E9139;" d="M159.83,381.01c3.41,14.31,0.31,30.04-8.29,41.97c-8.6,11.94-22.53,19.87-35.22,25.43
								c30.54,5.93,60.02,17.24,85.99,32.67c-0.73,3.49-1.47,6.98-1.08,11.32c-29.4-4.13-58.81-8.27-88.21-12.4
								c-3.5,13.12-7,26.24-10.5,39.37c-12.67-4.01-25.35-8.02-38.02-12.02c-1.54-0.49-3.2-1.07-4.06-2.43
								c-0.8-1.26-0.7-2.87-0.56-4.35c3.43-37.13,15.12-73.48,33.98-105.65c4-6.82,8.54-13.68,15.27-17.83
								C120.65,369.98,135.43,372.5,159.83,381.01z"/>
							<path style="fill:#5E9139;" d="M49.94,294.79c3.74-0.23,6.71,3.74,6.61,7.49c-0.1,3.75-2.44,7.06-5.1,9.71
								c3.06,11.92,6.12,23.83,9.18,35.75c-3.92,0.85-7.92,1.71-11.91,1.36s-8.08-2.09-10.28-5.44c-1.71-2.59-2.12-5.81-2.33-8.91
								c-0.4-5.72-0.29-11.47,0.31-17.17c0.45-4.21,1.19-8.48,3.21-12.2C41.65,301.65,45.15,298.53,49.94,294.79z"/>
						</g>
						<g>
							<g>
								<path style="fill:#FDBAB2;" d="M45.22,312.46c4.2-6.03,7.83-12.45,10.83-19.15c0.42-0.95,0.84-1.94,0.84-2.98
									c-0.01-1.04-0.56-2.15-1.54-2.48c-0.94-0.32-1.96,0.13-2.84,0.61c-2.77,1.52-5.3,3.46-7.81,6.21
									c-0.66-5.41-1.95-10.74-3.83-15.86c-0.36-0.98-0.76-1.99-1.49-2.74s-1.87-1.19-2.85-0.82c-1.42,0.55-1.75,2.38-1.81,3.9
									c-0.14,3.7,0.11,7.41,0.52,11.71c-2.47-3.99-5.53-7.62-9.05-10.73c-0.89-0.79-2.15-1.14-3.28-0.77
									c-2.27,0.74-2.09,3.39-1.53,5.39c0.94,3.4,2.31,6.68,3.53,10.62c-2.45-3.69-6.05-6.61-10.17-8.25
									c-1.46-0.58-3.3-0.96-4.3,0.64c-0.56,0.9-0.57,2.05-0.17,3.03c1.83,4.46,4.11,8.68,6.56,13.24
									c-1.48-0.74-2.61-2.01-3.75-3.21c-1.41-1.49-2.99-2.97-5.16-3.13c-1.03-0.08-2.09,0.26-2.79,1.02
									c-1.52,1.67-0.59,3.96,0.42,5.76c4.54,8.06,10.75,15.17,18.03,20.68C30.3,321.61,39.55,320.6,45.22,312.46z"/>
								<path style="fill:#FDBAB2;" d="M196.06,455.01c6.19-3.95,12.76-7.31,19.58-10.03c0.97-0.39,1.97-0.76,3.01-0.71
									c1.04,0.05,2.12,0.65,2.42,1.64c0.28,0.96-0.21,1.96-0.73,2.81c-1.64,2.7-3.68,5.16-6.52,7.55
									c5.38,0.88,10.65,2.38,15.69,4.47c0.97,0.4,1.95,0.84,2.67,1.6c0.72,0.76,1.12,1.92,0.7,2.88c-0.61,1.4-2.45,1.66-3.97,1.65
									c-3.7-0.02-7.4-0.41-11.68-1c3.89,2.64,7.39,5.84,10.35,9.49c0.75,0.92,1.05,2.19,0.63,3.31c-0.83,2.24-3.47,1.95-5.45,1.31
									c-3.36-1.08-6.58-2.58-10.46-3.97c3.59,2.6,6.36,6.31,7.82,10.5c0.52,1.48,0.82,3.33-0.82,4.27
									c-0.92,0.53-2.07,0.49-3.04,0.05c-4.38-2.01-8.51-4.46-12.96-7.1c0.68,1.51,1.9,2.69,3.05,3.88
									c1.43,1.47,2.84,3.11,2.91,5.28c0.03,1.03-0.35,2.08-1.14,2.74c-1.73,1.45-3.98,0.43-5.74-0.66
									c-7.86-4.86-14.71-11.36-19.92-18.86C186.31,469.54,187.7,460.34,196.06,455.01z"/>
								<g>
									<path style="fill:#EF6A51;" d="M188.31,484.9l-79.9-10.83l-2.12,6.8l-4.11,12.85l-10.43,32.65
										c-32.78-6.3-73.86-3.37-96.44-24.36l29.22-45.79l5.8-10.64l2.64-4.85L15.49,318.74l30.78-6.81l25.77,101.42l18.11,17.51
										l103.65,25.53L188.31,484.9z"/>
									<path style="fill:#F98E78;" d="M30.32,445.57c23.33,16.7,48.64,28.48,75.97,35.29l-4.11,12.85
										c-28.75-6.89-54.72-19.25-77.65-37.5"/>
								</g>
								<g>
									<path style="fill:#685EA6;" d="M62.03,412c0,0-5.75,28.7,13.86,36.45c17.01,6.72,32.52-15.5,32.52-15.5L62.03,412z"/>
									<path style="fill:#E38A8A;" d="M65.42,417.54c0,0-4.13,21.46,11.76,27.62c13.78,5.34,25.88-11.09,25.88-11.09L65.42,417.54
										z"/>
								</g>
							</g>
							<g>
								<g>
									
										<ellipse transform="matrix(0.0336 -0.9994 0.9994 0.0336 -267.2806 553.2971)" style="fill:#FDBAB2;" cx="152.467" cy="414.858" rx="16.009" ry="18.289"/>
									<path style="fill:#E38A8A;" d="M138.519,418.514c0.174-5.177,6.007-9.183,13.027-8.947
										c7.021,0.236,12.571,4.624,12.397,9.802c-0.174,5.177-6.007,9.183-13.028,8.947
										C143.896,428.08,138.345,423.691,138.519,418.514z"/>
								</g>
								<g>
									
										<ellipse transform="matrix(0.5586 -0.8295 0.8295 0.5586 -298.2549 199.7329)" style="fill:#FDBAB2;" cx="38.523" cy="380.079" rx="16.011" ry="18.291"/>
									<path style="fill:#E38A8A;" d="M24.753,375.787c2.894-4.297,9.964-4.599,15.791-0.675
										c5.827,3.924,8.205,10.589,5.312,14.886c-2.894,4.297-9.964,4.599-15.791,0.675S21.859,380.085,24.753,375.787z"/>
								</g>
								<path style="fill:#FDBAB2;" d="M151.95,406.15c9.26-30.62,2.54-73.59-34.87-83.79c-31.07-8.47-67.5,19.43-76.75,50.06
									s14.65,50.18,45.65,58.89C116.36,439.83,142.7,436.77,151.95,406.15z"/>
								<path style="fill:#E38A8A;" d="M42.81,365.03c7.92-9.51,16.76-18.26,27-26.03c3.56,3.5,9.11,3.92,14.08,3.41
									s10-1.73,14.89-0.73s9.66,5.2,9.08,10.16c4.21-1.23,7.93-4.05,11.21-5.85c6.21,7.28,15.22,12.12,25.6,13.55
									c0.94,5.87,4.09,11.35,8.56,15.75c0.49,4.91,0.99,9.83,1.48,14.74c4.51-9.72,3.8-21.38-0.51-31.2
									c-4.31-9.82-11.91-17.92-20.58-24.22c-13.35-9.71-30.11-15.57-46.44-13.17c-16.33,2.39-31.67,14.15-35.57,30.18"/>
								<g>
									<g>
										<g>
											<path style="fill:#FFFFFF;" d="M142.06,402.6c2.66-7.23-1.77-15.51-9.88-18.5c-8.12-2.98-16.85,0.46-19.51,7.69
												c-2.66,7.23,0.66,14.79,10.3,17.94C131.53,412.54,139.4,409.83,142.06,402.6z"/>
											<path style="fill:#1F1313;" d="M112.23,393.24c1.99-4.8,6.34-8.57,12.1-9.5c6.65-1.07,13.37,2.41,16.37,8.44
												c1.72,3.45,2.06,7.15,1.29,10.53c1.47-3.55,1.66-7.65,0.18-11.57c-2.69-7.13-10.41-11.37-17.86-9.78
												C118,382.7,113.53,387.53,112.23,393.24z"/>
										</g>
										<g>
											<circle style="fill:#1F1313;" cx="122.21" cy="396.97" r="8.09"/>
											<circle style="fill:#FFFFFF;" cx="128.48" cy="393.84" r="1.92"/>
										</g>
									</g>
									<g>
										<g>
											<path style="fill:#FFFFFF;" d="M51.67,382.14c0.46-7.69,7.83-13.51,16.46-12.99c8.63,0.52,15.26,7.17,14.8,14.86
												s-6.52,13.29-16.62,12.32C57.34,395.46,51.21,389.83,51.67,382.14z"/>
											<path style="fill:#1F1313;" d="M82.75,385.51c0.1-5.2-2.38-10.4-7.29-13.55c-5.66-3.64-13.22-3.15-18.38,1.17
												c-2.96,2.48-4.75,5.73-5.39,9.13c0.07-3.84,1.54-7.67,4.47-10.67c5.32-5.45,14.09-6.25,20.28-1.81
												C81.69,373.55,83.85,379.76,82.75,385.51z"/>
										</g>
										<g>
											<path style="fill:#061521;" d="M69.37,382.93c0.62-2.01,2.76-3.13,4.77-2.51c2.01,0.62,3.13,2.76,2.51,4.77"/>
											<circle style="fill:#1F1313;" cx="73.01" cy="384.06" r="8.09"/>
											<circle style="fill:#FFFFFF;" cx="79.21" cy="380.8" r="1.92"/>
										</g>
									</g>
									<path style="fill:#C96974;" d="M97.35,395.1c-0.34,2.25-1.08,4.44-2.19,6.43c1.45,0.02,2.86-0.91,3.42-2.25
										C99.14,397.95,98.79,396.29,97.35,395.1z"/>
									<g>
										<path style="fill:#4D2238;" d="M97.92,422.65c-6.51,1.96-14.39-0.64-18.16-5.99c-3.56-5.07-3.13-12.14,0.87-16.76
											c0.59-0.09,1.1-0.18,1.69-0.27c7.74,4.11,16.32,6.85,25.13,8.04c0.45,0.06,0.9,0.12,1.35,0.17
											C108.99,414.34,104.44,420.68,97.92,422.65z"/>
										<path style="fill:#FFFFFF;" d="M107.46,407.66c-1,1.4-2.46,2.44-3.98,2.93c-2.53,0.82-5.2,0.42-7.75-0.15
											c-3.37-0.77-6.74-1.86-9.66-3.9c-2.31-1.61-4.34-3.87-5.58-6.62c0.45-0.41,0.44-0.4,0.89-0.81
											C89.37,403.5,98.29,406.43,107.46,407.66z"/>
									</g>
									<g>
										<path style="fill:#863A06;" d="M125.93,364.81c2.7-2.66,6.97-3.39,10.59-2.25c3.62,1.14,6.57,3.94,8.41,7.25
											c1.84,3.32,2.64,7.12,2.53,10.94C143.85,371.88,134.46,365.7,125.93,364.81z"/>
										<path style="fill:#863A06;" d="M84.35,356.39c-2.2-5.16-7.47-8.85-13.07-9.16c-5.6-0.3-11.24,2.81-15.24,9.46
											C64.83,352.49,75.5,352.43,84.35,356.39z"/>
									</g>
								</g>
								<g>
									<path style="fill:#863A06;" d="M173.67,377.35c-4.28,0.69-8.63,0.91-12.96,0.67c-1.49,8.99-4.92,18.5-8.24,27.41
										c1.13-11.03,2.57-21.43,1.76-31.49c-4.7-5.35-6.89-11.69-7.09-18.1c-6.22,0.72-12.85-2.27-18-6.61
										c-5.15-4.33-9.05-9.93-12.9-15.45c-0.05,4.74-2.58,9.39-6.53,12.02c0.55-5.18-4.7-9.37-9.86-10.11
										c-5.15-0.73-10.32,0.85-15.49,1.42c-5.18,0.58-11.12-0.2-14.28-4.34c-12.17,11.26-22.22,25.56-29.22,39.63
										c-1.98-1.82-3.02-32.71,5.66-41.61c-2.24-0.59-4.74-0.1-6.6,1.28c2.21-5.34,6.2-9.83,11.09-12.9
										c4.93-3.1,10.77-4.76,16.59-4.4c-0.49-3.23,1.77-6.35,4.56-8.04c2.79-1.7,6.08-2.34,9.2-3.3
										c7.21-2.21,13.76-6.17,20.87-8.65c7.12-2.48,15.43-3.29,21.86,0.64c-4.85,0.34-9.35,3.7-11.07,8.24
										c5.99-3.52,13.76-2.7,19.99,0.35c6.24,3.05,11.28,8.05,16.2,12.95c8.52,8.5,17.21,17.24,22.25,28.17
										c-3.45-2.89-7.77-4.72-12.25-5.21c2.39,2.27,4.04,5.58,4.44,8.75c0.41,3.17-0.13,6.39-0.04,9.58
										c0.08,3,0.75,5.97,1.91,8.73C167.25,371.08,170.07,374.73,173.67,377.35z"/>
									<path style="fill:#A15815;" d="M163.61,358.25c0.08,3,0.75,5.97,1.91,8.73c-1.72-1.66-3.07-3.86-3.84-6.1
										c-1.69-4.89-1.66-10.23-3.37-15.11c-2.36-6.77-8.16-12.22-15.06-14.16c3.84-1.34,8.05-1.61,12.02-0.78
										c-6.9-7.37-14.07-14.75-22.95-19.57c-8.88-4.81-19.85-6.77-29.15-2.82c0.53-3.59,2.51-6.94,5.39-9.12
										c-9.6,3.69-19.2,7.38-28.8,11.08c-4.59,1.76-9.92,4.44-10.38,9.34c-6.22-2.15-12.56-2.19-18.37-0.57
										c4.93-3.1,10.77-4.76,16.59-4.4c-0.49-3.23,1.77-6.35,4.56-8.04c2.79-1.7,6.08-2.34,9.2-3.3
										c7.21-2.21,13.76-6.17,20.87-8.65c7.12-2.48,15.43-3.29,21.86,0.64c-4.85,0.34-9.35,3.7-11.07,8.24
										c5.99-3.52,13.76-2.7,19.99,0.35c6.24,3.05,11.28,8.05,16.2,12.95c8.52,8.5,17.21,17.24,22.25,28.17
										c-3.45-2.89-7.77-4.72-12.25-5.21c2.39,2.27,4.04,5.58,4.44,8.75C164.06,351.84,163.52,355.06,163.61,358.25z"/>
								</g>
							</g>
						</g>
						<path style="fill:#5E9139;" d="M173.71,486.3c1.48-3.32,4.15-6.09,7.41-7.7c-3.91-0.86-8.27,1.69-9.45,5.52
							c0.45-3.86-0.98-7.9-3.75-10.62c0.17,3.07,0.34,6.15,0.52,9.22c-1.76-2.94-4.9-5.01-8.29-5.47c2.11,2.14,3.66,4.82,4.49,7.71
							C167.03,485.39,169.43,485.82,173.71,486.3z"/>
						<path style="fill:#5E9139;" d="M115.18,477.61c-0.57-3.78-0.23-7.7,0.99-11.32c-3.15,1.65-5.1,5.33-4.71,8.86
							c-2.34-2.97-3.43-6.88-2.97-10.63c-3.09,3.13-3.52,8.52-0.97,12.1c-1.7-1.82-4.81-2.07-6.78-0.54
							c3.49,0.89,6.3,4.01,6.82,7.57C109.25,481.43,111.51,479.66,115.18,477.61z"/>
					</g>
					<g>
						<path style="fill:#5E9139;" d="M210.39,92.16c11.32,1.34,21.61,9.31,25.74,19.93c-7.88-1.56-15.77-3.11-23.65-4.67
							c-37.32,17.62-70.78,30.3-111.14,41.86c-1.56,23.25-2.97,40.06-4.88,68.54c-6.02-0.61-12.04-1.22-18.94-1.54
							c-2.79,0.23-5.64-0.56-7.56-1.4c-4.79-25.87-4.63-39.73-15.3-58.54c-16.63,4.16-50.26,14.32-66.89,18.48
							c-2.48-13.32-4.96-26.65-7.43-39.97c-0.3-1.59-0.56-3.34,0.26-4.73c0.79-1.33,2.36-1.95,3.82-2.47
							C48.04,105.09,115.48,93.32,182.99,93"/>
						<g>
							<g>
								<g>
									<path style="fill:#FDBAB2;" d="M217.18,104.22c6.4,3.6,13.14,6.6,20.1,8.94c0.98,0.33,2.01,0.65,3.04,0.55
										c1.03-0.11,2.08-0.76,2.32-1.77c0.23-0.97-0.32-1.94-0.88-2.76c-1.78-2.61-3.96-4.95-6.93-7.18
										c5.32-1.17,10.51-2.97,15.42-5.33c0.94-0.45,1.9-0.95,2.58-1.75c0.68-0.8,1.01-1.98,0.54-2.92
										c-0.68-1.36-2.54-1.52-4.06-1.43c-3.69,0.22-7.37,0.82-11.61,1.64c3.74-2.85,7.06-6.24,9.82-10.04
										c0.7-0.96,0.93-2.25,0.45-3.34c-0.96-2.19-3.58-1.75-5.51-1.01c-3.29,1.26-6.43,2.94-10.23,4.54
										c3.44-2.79,6-6.65,7.23-10.91c0.44-1.51,0.63-3.37-1.05-4.22c-0.95-0.48-2.1-0.37-3.03,0.12
										c-4.27,2.25-8.25,4.92-12.55,7.8c0.59-1.54,1.75-2.79,2.84-4.04c1.35-1.55,2.67-3.26,2.62-5.44
										c-0.02-1.03-0.46-2.06-1.29-2.68c-1.81-1.36-4-0.21-5.69,0.97c-7.58,5.29-14.07,12.15-18.85,19.93
										C206.65,90.25,208.54,99.36,217.18,104.22z"/>
									<polygon style="fill:#FDBAB2;" points="216.14,101.96 214.56,102.47 191.52,109.93 177.11,114.6 157.4,120.92 
										154.61,121.81 151.6,115.02 139.12,86.81 148.18,85.73 153.08,85.15 161.54,84.16 181.26,81.83 205.85,78.93 205.86,78.93 
										207.01,78.79 207.02,78.79 209.61,78.48 									"/>
								</g>
								<polygon style="fill:#E38A8A;" points="191.52,109.93 177.11,114.6 157.4,120.92 154.61,121.81 151.6,115.02 153.08,85.15 
									161.54,84.16 181.26,81.83 								"/>
							</g>
							<g>
								<path style="fill:#B5A9D3;" d="M109.25,133.56L109.25,133.56c-6,2.38-12.22,4.55-18.51,6.53
									C50.17,152.89-4.7,163.82-4.7,163.82l3.71-101.44l91.74,24.15L109.25,133.56z"/>
								<path style="fill:#E38A8A;" d="M109.24,133.56c-5.99,2.38-12.21,4.55-18.5,6.53l9.75-29.54L109.24,133.56z"/>
							</g>
							<g>
								<g>
									
										<ellipse transform="matrix(0.121 -0.9927 0.9927 0.121 30.7026 273.3752)" style="fill:#FDBAB2;" cx="169.712" cy="119.351" rx="15.381" ry="17.581"/>
									<path style="fill:#E38A8A;" d="M156.054,121.686c0.602-4.94,6.521-8.282,13.221-7.466
										c6.7,0.817,11.643,5.483,11.041,10.423c-0.602,4.94-6.521,8.282-13.221,7.466
										C160.395,131.292,155.451,126.626,156.054,121.686z"/>
								</g>
								<path style="fill:#FDBAB2;" d="M171.02,111.27c8.98-29.4,2.53-80.15-38.26-81.62c-38.07-1.38-59.92,19.47-68.9,48.87
									s25.02,53.2,53.7,59.72C146.42,144.81,162.04,140.67,171.02,111.27z"/>
								<g>
									<g>
										<g>
											<path style="fill:#FFFFFF;" d="M93.39,81.2c2.31-7.04,10.58-10.64,18.47-8.06s12.43,10.39,10.12,17.43
												c-3.03,9.24-9.23,8.76-18.38,5.39C95.48,92.97,91.09,88.24,93.39,81.2z"/>
											<path style="fill:#1F1313;" d="M121.46,91.92c1.36-4.81,0.33-10.24-3.46-14.37c-4.37-4.77-11.52-6.15-17.37-3.4
												c-3.36,1.58-5.81,4.16-7.24,7.17c1.01-3.55,3.3-6.76,6.76-8.83c6.28-3.77,14.62-2.37,19.29,3.27
												C123.39,80.54,123.88,86.85,121.46,91.92z"/>
										</g>
										<g>
											<circle style="fill:#1F1313;" cx="107.59" cy="84.75" r="7.77"/>
											<circle style="fill:#FFFFFF;" cx="114.15" cy="83.24" r="1.84"/>
										</g>
									</g>
									<g>
										<g>
											<path style="fill:#FFFFFF;" d="M170.75,107.86c3.01-6.76,0.37-14.35-5.9-16.95c-6.27-2.6-13.79,0.76-16.81,7.52
												c-3.02,6.76-2.46,10.4,7.15,13C163.7,113.73,167.74,114.62,170.75,107.86z"/>
											<path style="fill:#1F1313;" d="M147.52,99.78c2.19-4.49,6.17-8.08,10.98-9.05c5.54-1.12,10.62,1.97,12.37,7.49
												c1,3.17,0.84,6.59-0.18,9.73c1.62-3.32,2.25-7.12,1.5-10.73c-1.36-6.55-7.16-10.33-13.42-8.71
												C153.46,89.9,149.25,94.46,147.52,99.78z"/>
										</g>
										<g>
											<path style="fill:#1F1313;" d="M148.86,99.714c1.371-4.066,5.172-6.456,8.49-5.338c3.318,1.118,4.897,5.321,3.526,9.388
												c-1.371,4.066-5.172,6.456-8.49,5.338C149.068,107.984,147.49,103.78,148.86,99.714z"/>
											<path style="fill:#FFFFFF;" d="M159.063,99.867c0.324-0.963,1.224-1.529,2.009-1.264c0.785,0.265,1.158,1.26,0.834,2.223
												c-0.325,0.963-1.224,1.529-2.009,1.264C159.112,101.825,158.738,100.83,159.063,99.867z"/>
										</g>
									</g>
									<path style="fill:#C96974;" d="M139.56,100.88c-0.38,2.16-1.14,4.24-2.24,6.13c1.39,0.05,2.77-0.81,3.33-2.08
										C141.22,103.66,140.93,102.06,139.56,100.88z"/>
									<g>
										<path style="fill:#4D2238;" d="M126.45,129.4c-7.41,1.29-15.59-2.56-18.87-8.89c-3.09-5.99-1.52-13.65,3.56-18.17
											c0.65-0.03,1.23-0.05,1.88-0.08c7.8,5.49,16.73,9.6,26.15,12.04c0.49,0.12,0.96,0.25,1.45,0.36
											C139.81,121.78,133.86,128.1,126.45,129.4z"/>
										<path style="fill:#FFFFFF;" d="M139.18,114.29c-1.31,1.4-3.06,2.34-4.79,2.68c-2.89,0.57-5.73-0.21-8.42-1.17
											c-3.56-1.28-7.06-2.9-9.93-5.51c-2.27-2.06-4.13-4.78-5.06-7.95c0.56-0.39,0.54-0.38,1.1-0.77
											C120.1,107.41,129.37,111.75,139.18,114.29z"/>
									</g>
									<path style="fill:#FFA03B;" d="M124.54,65.62c0.52-4.22-1.91-8.51-5.55-10.71s-8.27-2.43-12.32-1.14
										c-4.05,1.29-7.55,3.99-10.55,8.13c4.62-2.51,10.07-3.44,15.26-2.61C116.57,60.13,121.46,62.72,124.54,65.62z"/>
									<path style="fill:#FFA03B;" d="M169.89,78.21c0.14-3.92,0.06-8.39-2.87-11c-2.54-2.27-6.52-2.27-9.64-0.89
										c-3.12,1.38-5.59,3.87-8.39,7.72c3.36-2.18,7.56-3.02,11.49-2.3C164.41,72.46,168.05,74.75,169.89,78.21z"/>
								</g>
								<g>
									<path style="fill:#FFA03B;" d="M199.33,37.82c-2.25,3.95-7.9,8.61-13.25,12.47c-2.71,1.97-5.35,3.73-7.42,5.09
										c1.44,13.93-0.59,34.06-6.31,51.21c3.16-16.78,2.99-28.24-3.41-49.48c-22.27-9.12-45.47-15.97-67.84-19.75
										c-11.89,15.02-22.74,30.88-32.44,47.4c-3.36-2.06-6.13-4.42-9.2-6.27c-0.07-19.58,5.98-38.18,16.88-53.84
										c5.93-6.56,13.09-11.99,20.97-16c6.03-3.07,12.49-5.31,19.14-6.59c-1.44,4.17-2.87,8.34-4.37,12.03
										c17.89-5.98,41.59-8.78,59.23-2.08c-1.89,2.95-3.78,5.89-4.09,9.12C180.1,22.3,191.77,28.24,199.33,37.82z"/>
									<path style="fill:#FFC05C;" d="M199.33,37.82c-2.25,3.95-7.9,8.61-13.25,12.47c2.96-4.06,5.91-8.11,8.87-12.17
										c-9.67-9.89-23.89-15.13-37.67-13.87c1.74-2.73,3.47-5.46,5.2-8.2c-20.59-1.91-39.42-0.25-57.5,4.38
										c2.04-4.2,3.47-8.7,4.22-13.31c-4.02-0.09-8.02,0.45-11.89,1.53c6.03-3.07,12.49-5.31,19.14-6.59
										c-1.44,4.17-2.87,8.34-4.37,12.03c17.89-5.98,41.59-8.78,59.23-2.08c-1.89,2.95-3.78,5.89-4.09,9.12
										C180.1,22.3,191.77,28.24,199.33,37.82z"/>
								</g>
								<g>
									<path style="fill:#FDBAB2;" d="M43.534,74.669c4.766-7.031,15.144-8.314,23.181-2.866
										c8.036,5.448,10.687,15.563,5.921,22.594c-4.766,7.031-15.144,8.314-23.181,2.866
										C41.419,91.815,38.768,81.699,43.534,74.669z"/>
									<path style="fill:#E38A8A;" d="M44.87,80.367c2.792-4.119,9.584-4.388,15.17-0.601c5.586,3.787,7.851,10.196,5.059,14.314
										c-2.792,4.119-9.584,4.388-15.17,0.601C44.342,90.895,42.077,84.486,44.87,80.367z"/>
								</g>
							</g>
							<g>
								<g>
									<g>
										<path style="fill:#FDBAB2;" d="M92.62,210.04c6.72,2.97,13.16,6.57,19.2,10.74c0.86,0.59,1.73,1.22,2.26,2.11
											s0.64,2.12-0.03,2.92c-0.64,0.77-1.74,0.91-2.74,0.95c-3.16,0.14-6.33-0.2-9.9-1.24c2.25,4.96,3.92,10.19,4.97,15.54
											c0.2,1.03,0.38,2.09,0.15,3.11c-0.23,1.02-0.98,1.99-2.01,2.18c-1.5,0.27-2.74-1.12-3.57-2.39
											c-2.04-3.09-3.76-6.39-5.64-10.27c-0.04,4.7-0.77,9.39-2.16,13.88c-0.35,1.14-1.24,2.09-2.4,2.36
											c-2.33,0.55-3.55-1.81-4.11-3.81c-0.96-3.4-1.5-6.91-2.5-10.91c-0.17,4.43-1.73,8.79-4.4,12.33
											c-0.94,1.25-2.32,2.53-4.01,1.68c-0.95-0.48-1.56-1.45-1.72-2.5c-0.75-4.76-1-9.56-1.27-14.72
											c-0.88,1.4-1.19,3.07-1.54,4.69c-0.43,2.01-1.01,4.09-2.78,5.35c-0.84,0.6-1.92,0.86-2.91,0.57
											c-2.17-0.63-2.56-3.08-2.63-5.14c-0.31-9.24,1.3-18.54,4.66-27.03C75.12,209.98,83.55,206.04,92.62,210.04z"/>
										<polygon style="fill:#FDBAB2;" points="94.89,213.49 70.64,218.38 67.82,210.43 57.78,182.12 50.86,162.61 49.88,159.85 
											84.39,143.29 85.74,152.31 87.73,165.61 94.5,210.9 94.5,210.91 										"/>
									</g>
									<polygon style="fill:#E38A8A;" points="87.73,165.61 57.78,182.12 50.86,162.61 85.74,152.31 									"/>
								</g>
								<path style="fill:#8878BF;" d="M52.51,114.61L52.51,114.61c-13.09,4.48-19.95,18.39-15.26,30.97l10.62,28.53l41.97-13.01
									l-4.42-27.56C83.04,118.65,67.24,109.57,52.51,114.61z"/>
							</g>
						</g>
						<path style="fill:#5E9139;" d="M214.79,106.38c0.35-3.93,2.24-7.7,5.19-10.33c-3.7,0.24-7.14,2.86-8.37,6.36
							c-0.82-2.95-0.78-6.12,0.11-9.05c-3.15,2.13-5.1,5.93-5,9.73c-1.61-2.16-4.52-3.25-7.15-2.68c2.9,1.92,4.41,5.73,3.59,9.12
							C206.16,108.39,209.39,107.85,214.79,106.38z"/>
						<path style="fill:#5E9139;" d="M31.18,159.28c-0.45-4.47,1.18-9.11,4.34-12.32c-1.99-0.91-4.43,0.03-5.91,1.64
							c-1.48,1.61-2.22,3.75-2.92,5.82c-1.28-3.6-1.73-7.49-1.31-11.29c-3.29,2.79-4.83,7.5-3.82,11.7
							c-2.25-2.7-5.84-4.22-9.34-3.96c4.05,1.8,6.91,6.03,7.07,10.46C22.78,160.84,26.28,160.36,31.18,159.28z"/>
					</g>
					<g>
						<path style="fill:#5E9139;" d="M294.58,149.69c3.48,6.28,10.75,9.73,17.9,10.36c7.15,0.63,14.28-1.15,21.32-2.63
							c17.96,8.01,37.21,13.12,55.16,15.2c5.54,7.11,12.02,13.85,20.3,17.4c8.28,3.56,18.69,3.32,25.52-2.56
							c6.53-5.62,8.46-14.82,9.62-23.37c2.64-19.49,3.27-39.25,0.4-58.96C459.36,68.36,474.72,31.9,490.88-4.2
							c-35.66-0.96-71.32-1.92-106.98-2.88C354.8,43.98,325.13,94.69,294.58,149.69z"/>
						<g>
							<g>
								<g>
									<path style="fill:#8E5448;" d="M287.9,149.57c17.41,17.5,43.28-3.43,43.28-3.43l5.88-32.3l-4.17-3.64L312.4,92.3
										c0,0-5.62,6.14-10.82,11.95c-2.86,3.18-5.58,6.27-7.18,8.18C280.1,129.56,283.36,145,287.9,149.57z"/>
									<path style="fill:none;stroke:#38182B;stroke-linecap:round;stroke-miterlimit:10;" d="M321.48,126.05
										c-5.24-0.76-14.02-1.39-19.26-2.15"/>
									<path style="fill:#75413C;" d="M301.59,104.25c14.17,4.9,25.23,15.25,25.23,15.25l6.07-9.3L312.4,92.3
										C312.4,92.3,306.78,98.44,301.59,104.25z"/>
								</g>
								<polygon style="fill:#F07FB3;" points="336.56,58.54 299.43,95.63 334.83,121.73 359.58,101.09 								"/>
							</g>
							<polygon style="fill:#F07FB3;" points="338.35,83.77 352.56,-7.97 480.19,-8.5 436.61,112.42 							"/>
							<g>
								<g>
									<path style="fill:#8E5448;" d="M430.4,197.1c-24.58,2.23-30.97-30.43-30.97-30.43l16.25-28.53l5.53-0.11l27.2-0.56
										c0,0,0.36,8.32,0.61,16.11c0.15,4.27,0.25,8.39,0.25,10.88C449.23,186.78,436.81,196.51,430.4,197.1z"/>
									<path style="fill:none;stroke:#38182B;stroke-linecap:round;stroke-miterlimit:10;" d="M419.78,157.5
										c4.51,2.79,9.01,5.57,13.52,8.36"/>
									<path style="fill:#75413C;" d="M449.02,153.58c-14.01-5.35-29.14-4.52-29.14-4.52l1.33-11.02l27.2-0.56
										C448.41,137.47,448.77,145.79,449.02,153.58z"/>
								</g>
								<polygon style="fill:#F07FB3;" points="449.84,92.54 460.53,141.88 418.96,148.48 411.54,113.68 								"/>
							</g>
							<g>
								<g>
									
										<ellipse transform="matrix(0.944 -0.3298 0.3298 0.944 -15.6122 151.8112)" style="fill:#8E5448;" cx="439.598" cy="121.917" rx="18.519" ry="15.969"/>
									<path style="fill:#75413C;" d="M436.837,117.35c6.697-2.381,13.53-0.363,15.262,4.507
										c1.732,4.871-2.293,10.749-8.991,13.131c-6.697,2.381-13.53,0.363-15.262-4.508
										C426.115,125.61,430.14,119.731,436.837,117.35z"/>
								</g>
								<path style="fill:#945B51;" d="M412.39,165.99c5.17-2.23,10.38-4.65,14.54-8.45c4.16-3.8,7.18-9.23,6.79-14.85
									c-0.08-1.21-0.34-2.46-1.08-3.42c-0.74-0.96-2.07-1.55-3.21-1.13c-0.71,0.26-1.24,0.85-1.73,1.42
									C421.07,147.21,415.38,155.66,412.39,165.99z"/>
								<path style="fill:#945B51;" d="M316.22,133.87c-2.2-5.18-4.3-10.53-4.69-16.15c-0.39-5.62,1.18-11.63,5.33-15.43
									c0.9-0.82,1.94-1.54,3.14-1.73c1.2-0.18,2.56,0.31,3.1,1.4c0.33,0.68,0.31,1.47,0.28,2.22
									C322.9,114.28,321.19,124.33,316.22,133.87z"/>
								<g>
									
										<ellipse transform="matrix(0.8865 -0.4627 0.4627 0.8865 1.26 160.362)" style="fill:#8E5448;" cx="327.54" cy="77.612" rx="15.97" ry="18.52"/>
									<path style="fill:#75413C;" d="M318.498,69.028c4.596-2.367,10.96,0.838,14.214,7.158c3.254,6.32,2.166,13.361-2.43,15.728
										c-4.596,2.367-10.96-0.838-14.214-7.158C312.814,78.436,313.902,71.394,318.498,69.028z"/>
								</g>
								<g>
									<path style="fill:#8E5448;" d="M431.9,135.06c10.61-30.18,5.82-73.41-31.09-85.27c-30.66-9.85-68.3,16.4-78.91,46.58
										c-10.61,30.18,12.39,50.79,42.98,60.87C394.84,167.12,421.28,165.24,431.9,135.06z"/>
									<path style="fill:#75413C;" d="M327.31,83.45c1.41-3.23,4.73-5.26,8.13-6.22c3.39-0.96,6.97-1.05,10.45-1.61
										c3.48-0.56,7.06-1.69,9.53-3.79c1.01,4.84,4.42,9.12,8.91,11.18c4.49,2.06,9.96,1.86,14.58,0.65
										c2.57,4.19,6.77,7.36,11.51,8.68c4.74,1.32,9.97,0.77,14.19-1.23c2.11,4.49,5.87,8.19,10.4,10.22
										c4.53,2.04,9.79,2.4,13.91,1.38c2.26,7.07,4.52,14.13,6.78,21.2c3.8-8.9,7.63-18.96,4.1-27.97
										c-1.76-4.5-5.19-8.13-8.73-11.41c-11.04-10.23-24.08-18.29-38.16-23.6c-11.38-4.29-23.75-6.79-35.73-4.68
										C345.21,58.36,333.73,65.66,327.31,83.45z"/>
								</g>
								<g>
									<path style="fill:#4B2B27;" d="M458.36,102.12c-2.12,4.85-6.18,8.17-10.83,7.43c0,0,2.67,9.8-15.11,23.33
										c5.33-15.67,0.11-19.9,0.35-34.21c-6.57,6.28-25.61-0.67-26.22-14.36c-5.66,10.86-24.64,4.34-25.93-8.65
										c-4.96,9.53-24.61,5.68-23.01-11.52c-11.68,14.52-19.49,1.2-30.61,22.47c-4.09-11.07-5.97-35.35,9.01-36.26
										c-2.74-8.72,0.01-16.14,5.07-20.54c6.61-5.74,17.17-6.34,24.65,2.04c7.45-17.15,33.45-21.47,43.37-1.35
										c14.7-6.77,36.45,1.93,33.38,20.4c14.24,0.1,20.92,20.85,10.28,29.29C460.52,86.05,461.25,95.51,458.36,102.12z"/>
									<path style="fill:#633D35;" d="M458.36,102.12c-0.11-8.66-4.48-17.31-11.77-22.06c3.89-3.85,4.68-10.43,1.81-15.1
										c-2.86-4.65-9.11-6.91-14.29-5.17c1.55-6.46,2.7-13.15-0.65-18.16c-2.88-4.32-8.52-6.16-13.69-5.72
										c-5.17,0.44-9.97,2.81-14.44,5.44c-2.79-7.57-10.94-12.23-18.54-11.91c-7.61,0.34-14.54,4.68-20,9.99
										c-3.47-5.54-9.46-9.44-15.94-10.39c-3.26-0.47-6.62-0.19-9.78,0.76c6.61-5.74,17.17-6.34,24.65,2.04
										c7.45-17.15,33.45-21.47,43.37-1.35c14.7-6.77,36.45,1.93,33.38,20.4c14.24,0.1,20.92,20.85,10.28,29.29
										C460.52,86.05,461.25,95.51,458.36,102.12z"/>
								</g>
								<path style="fill:#A3685A;" d="M337.58,150.86c6.62-4.61,0.71-11.67-4.16-16.62c-2.56-2.6-5.62-4.66-8.39-6.89
									c0.29-4.06-0.2-8.18-1.45-12.06c-0.39-1.2-0.86-2.41-1.73-3.33c-0.87-0.91-2.21-1.47-3.42-1.1
									c-1.65,0.51-2.87,2.38-3.21,4.07c-0.94,4.62-1.95,11.07-1.17,16.62C315.55,142.21,327.57,157.83,337.58,150.86z"/>
								<path style="fill:#A3685A;" d="M393.48,166.03c-2.5-7.67,6.48-9.73,13.35-10.74c3.61-0.53,7.29-0.32,10.85-0.43
									c2.22-3.42,5.1-6.4,8.43-8.74c1.03-0.72,2.14-1.4,3.39-1.61c1.24-0.2,2.65,0.16,3.39,1.18c1.01,1.4,0.85,3.63,0.1,5.18
									c-2.05,4.25-5.13,10-9.1,13.96C416.27,172.44,397.25,177.64,393.48,166.03z"/>
								<g>
									<g>
										<path style="fill:#4B2B27;" d="M403.71,100.16c2.82-2.54,7.12-3.07,10.68-1.77c3.56,1.3,6.39,4.22,8.07,7.62
											c1.68,3.4,2.32,7.23,2.04,11.04C421.29,108.03,412.2,101.43,403.71,100.16z"/>
										<path style="fill:#4B2B27;" d="M365.67,86.67c-1.87-5.28-6.91-9.3-12.48-9.95s-11.4,2.1-15.8,8.5
											C346.44,81.58,357.09,82.18,365.67,86.67z"/>
									</g>
									<g>
										<path style="fill:#5E2E2E;" d="M375.69,127.43c-0.44,2.23-1.28,4.39-2.47,6.33c1.45,0.09,2.9-0.78,3.52-2.09
											S377.08,128.68,375.69,127.43z"/>
										<path style="fill:#38182B;" d="M355.13,128.42c0.19,5.5,4.08,11.04,9.69,13.79c5.61,2.75,12.67,2.58,17.57-0.42
											c-5.51,0.78-10.58,0.83-15.8-1.51C361.36,137.95,357.12,133.44,355.13,128.42z"/>
									</g>
									<g>
										<g>
											<g>
												<path style="fill:#FFFFFF;" d="M417.04,135.21c3.49-6.87,0.08-15.61-7.63-19.53s-16.79-1.53-20.28,5.34
													c-3.49,6.87-1.09,14.77,8.11,19.03C405.41,143.84,413.55,142.08,417.04,135.21z"/>
												<path style="fill:#1F1313;" d="M388.52,122.4c2.54-4.53,7.31-7.77,13.14-8.01c6.73-0.28,13,3.97,15.27,10.31
													c1.3,3.63,1.2,7.34,0.04,10.6c1.88-3.35,2.55-7.4,1.54-11.47c-1.84-7.4-8.99-12.51-16.58-11.82
													C395.49,112.62,390.48,116.88,388.52,122.4z"/>
											</g>
											<g>
												<circle style="fill:#1F1313;" cx="401.38" cy="126.62" r="8.09"/>
												<circle style="fill:#FFFFFF;" cx="407.97" cy="124.25" r="1.92"/>
											</g>
										</g>
										<g>
											<path style="fill:#1F1313;" d="M418.07,131.84c1.07,0.84,5.43,0.69,7.24-0.48c-0.7,1.88-3.83,3.54-7.79,2.74
												C417.73,133.44,417.93,132.77,418.07,131.84z"/>
											<path style="fill:#1F1313;" d="M418.38,128.29c1.2,0.65,5.47-0.24,7.06-1.69c-0.38,1.97-3.17,4.14-7.21,4.01
												C418.31,129.92,418.4,129.23,418.38,128.29z"/>
										</g>
									</g>
									<g>
										<g>
											<g>
												<path style="fill:#FFFFFF;" d="M333.7,104.14c1.97-7.45,10.35-11.69,18.71-9.48c8.36,2.21,13.54,10.05,11.56,17.5
													c-1.97,7.45-9.02,11.74-18.73,8.79C336.62,118.32,331.73,111.59,333.7,104.14z"/>
												<path style="fill:#1F1313;" d="M363.5,113.59c1.12-5.07-0.28-10.66-4.46-14.72c-4.83-4.69-12.34-5.7-18.25-2.49
													c-3.39,1.84-5.79,4.68-7.09,7.88c0.83-3.75,3.03-7.22,6.49-9.58c6.3-4.29,15.05-3.34,20.24,2.24
													C364.82,101.65,365.71,108.17,363.5,113.59z"/>
											</g>
											<g>
												<path style="fill:#061521;" d="M349.09,105.57c1.01-1.85,3.33-2.53,5.17-1.52c1.85,1.01,2.53,3.33,1.52,5.17"/>
												<circle style="fill:#1F1313;" cx="352.43" cy="107.39" r="8.09"/>
												<circle style="fill:#FFFFFF;" cx="359.15" cy="105.42" r="1.92"/>
											</g>
										</g>
										<g>
											<path style="fill:#1F1313;" d="M335.5,99.94c-1.37-0.02-4.65-2.89-5.32-4.94c-0.64,1.9,0.73,5.16,4.32,7.03
												C334.77,101.39,335.03,100.75,335.5,99.94z"/>
											<path style="fill:#1F1313;" d="M337.5,96.99c-1.34-0.25-4.1-3.64-4.41-5.77c-0.95,1.77-0.15,5.21,3.07,7.66
												C336.53,98.29,336.9,97.7,337.5,96.99z"/>
										</g>
									</g>
								</g>
							</g>
						</g>
						<path style="fill:#5E9139;" d="M474.91,27.12c-0.23-4.23,0.44-8.51,1.94-12.47c-3.37,1.16-5.72,4.77-5.41,8.32
							c-3.29-3.58-5.28-8.33-5.51-13.19c-2.24,4.19-2.1,9.55,0.35,13.61c-4-1.19-8.71,0.99-10.38,4.81
							c4.12-1.13,8.89,0.96,10.84,4.75C468.45,30.87,470.61,29.16,474.91,27.12z"/>
					</g>
					<g>
						<g>
							<path style="fill:#5E9139;" d="M321.71,360.45c-6.44,6.65-10.45,15.6-11.14,24.84c-0.69,9.24,1.97,18.68,9.47,26.4
								c-10.71,0.04-19.54-10.51-30.22-9.67c-7.98,0.62-14.15,7.46-21.35,10.84c15.99,6.78,31.99,13.56,50.86,21.19
								c-7.87,10.42-8.29,25.88-0.99,36.71c2,2.98,4.59,5.79,5.16,9.33c0.57,3.56-1.02,7.06-1.84,10.57
								c-2.54,10.85,2.65,22.57,11.23,29.69c8.57,7.12,19.97,10.11,31.11,10.42s22.18-1.85,33.11-3.99
								c3.82-0.75,8.42-2.26,9.08-6.09c0.39-2.24-0.81-4.41-1.89-6.41c-10.05-18.71-12.52-40.41-14.88-61.52
								c-2.36-21.11-4.97-42.82-15.24-61.4C363.91,372.78,344,357.85,321.71,360.45z"/>
							<path style="fill:#5E9139;" d="M461,309.23c-4.05-6.66-8.1-13.32-13.06-19.51c-6.28,7.34-7.58,18.55-2.86,27.45
								c-8.29,20.33-16.57,40.66-24.86,60.99c3.31,1.11,4.86,4.76,6.52,7.83c1.66,3.07,4.73,6.24,8.08,5.29
								c2.29-0.65,3.62-2.99,4.65-5.14c6.79-14.21,11.14-29.58,12.81-45.23C453.5,329.46,453.42,317.41,461,309.23z"/>
						</g>
						<g>
							<g>
								<path style="fill:#F1583C;" d="M351.27,516.93c-6.15-1.59-12.43-3.24-17.68-6.81s-9.37-9.48-9.02-15.82
									c0.38-7.01,5.99-13.78,3.66-20.4c-1.84-5.2-7.81-7.7-10.85-12.3c-3.3-5-2.62-11.68-0.54-17.3
									c2.08-5.62,5.4-10.74,7.22-16.45c1.81-5.71,1.82-12.56-1.72-18.75c37.78-12.55,75.15-26.34,115.44-41.57
									c2.56,13.4,12.29,25.21,24.96,30.29c7.31,2.93,16.53,4.65,19.53,11.94c3.09,7.51-2.69,16.6,0.65,24
									c2.87,6.35,11.09,8.43,15.17,14.09c2.53,3.51,3.18,8.03,3.12,12.36c-0.2,14.89-8.11,28.99-19.18,38.95
									c-11.07,9.97-25.04,16.18-39.33,20.39C414.81,527.77,385.75,525.86,351.27,516.93z"/>
								<g>
									<g>
										<path style="fill:#F2A5A0;" d="M448.63,316.71c0,0-2.56-20.6-3.76-27.85c-0.17-1.03-0.32-2.09-0.05-3.09
											c0.27-1,1.09-1.93,2.12-2.01c0.99-0.07,1.87,0.62,2.59,1.31c2.29,2.18,4.25,4.7,5.98,7.99c2.01-5.06,4.61-9.89,7.73-14.36
											c0.6-0.86,1.24-1.73,2.14-2.27c0.9-0.54,2.12-0.68,2.96-0.06c1.23,0.89,1.09,2.75,0.76,4.23
											c-0.81,3.61-1.98,7.14-3.48,11.19c3.41-3.23,7.29-5.97,11.48-8.08c1.06-0.54,2.37-0.55,3.37,0.09
											c2.01,1.29,1.16,3.81,0.11,5.6c-1.78,3.05-3.93,5.88-6.12,9.37c3.31-2.95,7.53-4.86,11.93-5.39
											c1.56-0.19,3.43-0.09,3.99,1.71c0.32,1.01,0.03,2.13-0.61,2.98c-2.91,3.85-6.18,7.35-9.71,11.14
											c1.62-0.34,3.04-1.28,4.44-2.15c1.74-1.08,3.65-2.11,5.79-1.72c1.01,0.19,1.96,0.79,2.43,1.7c1.05,2-0.18,4.28-1.87,5.46
											c-8.64,6.06-16.33,10.42-24.77,13.9C460.5,321.26,448.63,316.71,448.63,316.71z"/>
										<polygon style="fill:#F2A5A0;" points="468.12,324.25 467.83,325.68 458.28,372.64 448.46,420.95 421.22,403.31 
											437.17,352.26 448.53,315.92 449.08,314.16 										"/>
									</g>
								</g>
								<g>
									<g>
										<path style="fill:#F2A5A0;" d="M290.94,388.62c0,0-13.84-15.47-18.51-21.14c-0.66-0.8-1.36-1.62-2.3-2.07
											c-0.93-0.45-2.17-0.45-2.91,0.28c-0.71,0.7-0.76,1.82-0.71,2.81c0.14,3.16,0.75,6.29,2.09,9.75
											c-5.14-1.81-10.49-3.03-15.9-3.62c-1.04-0.11-2.12-0.2-3.12,0.12s-1.9,1.15-2,2.19c-0.14,1.52,1.35,2.63,2.69,3.36
											c3.25,1.77,6.69,3.2,10.72,4.74c-4.68,0.44-9.29,1.57-13.64,3.34c-1.1,0.45-1.97,1.42-2.15,2.6
											c-0.35,2.37,2.11,3.38,4.15,3.77c3.47,0.67,7.01,0.9,11.08,1.55c-4.4,0.55-8.61,2.48-11.91,5.44
											c-1.16,1.05-2.32,2.53-1.33,4.14c0.56,0.9,1.58,1.43,2.64,1.5c4.81,0.34,9.61,0.18,14.77,0.01
											c-1.32,1-2.96,1.45-4.54,1.93c-1.96,0.6-3.99,1.36-5.1,3.23c-0.52,0.89-0.69,1.99-0.32,2.95c0.82,2.1,3.35,2.67,5.35,2.18
											c10.25-2.52,18.59-5.45,26.76-9.52C286.56,400.56,290.94,388.62,290.94,388.62z"/>
										<polygon style="fill:#F2A5A0;" points="283.8,408.27 285.07,408.99 326.74,432.67 369.59,457.03 374.21,424.91 
											325.26,403.36 290.41,388.03 288.72,387.29 										"/>
									</g>
								</g>
								<g>
									<g>
										<polygon style="fill:#FEBB34;" points="466.44,507.38 382.85,525.53 382.22,520.04 381.11,510.28 379.71,497.97 
											378.59,488.21 377.5,478.66 376.51,469.91 376.13,466.61 351.84,454.64 347.58,452.54 356.24,421.05 356.24,421.04 
											357.78,415.44 394.47,415.64 424.24,389.14 430.99,395.59 455.74,419.24 453.04,424.51 441.97,446.16 443.52,450.05 
											446.79,458.23 450.27,466.91 453.91,476.04 458.42,487.32 462.07,496.44 										"/>
										<path style="fill:#DD921A;" d="M374.49,430.81c0,0,12.02,24,29.61,18.83c17.59-5.17,13.14-33.45,13.14-33.45
											L374.49,430.81z"/>
										<g>
											<path style="fill:#FDBAB2;" d="M414.09,431.88c-1.16,5.46-4.07,11.15-10.91,13.58c-7.27,2.59-13.96-2.58-18.3-7.41
												c-3.18-3.52-5.11-6.87-5.11-6.87l34.57-11.94C414.34,419.24,415.46,425.4,414.09,431.88z"/>
											<path style="fill:#E38A8A;" d="M414.09,431.88c-11.11,4.27-21.72,5.73-29.21,6.17c-3.18-3.52-5.11-6.87-5.11-6.87
												l34.57-11.94C414.34,419.24,415.46,425.4,414.09,431.88z"/>
										</g>
										<polygon style="fill:#DD921A;" points="361,425.03 351.84,454.64 347.58,452.54 356.24,421.05 356.24,421.04 
											358.29,416.76 										"/>
										<polygon style="fill:#DD921A;" points="455.74,419.24 453.04,424.51 427.56,399.98 430.99,395.59 										"/>
									</g>
									<polygon style="fill:#DD921A;" points="446.79,458.23 377.5,478.66 376.51,469.91 443.52,450.05 									"/>
									<polygon style="fill:#DD921A;" points="453.91,476.04 379.71,497.97 378.59,488.21 450.27,466.91 									"/>
									<polygon style="fill:#DD921A;" points="382.22,520.04 462.07,496.44 458.42,487.32 381.11,510.28 									"/>
								</g>
							</g>
							<g>
								<g>
									
										<ellipse transform="matrix(0.8553 -0.5181 0.5181 0.8553 -134.2258 281.2222)" style="fill:#FDBAB2;" cx="436.409" cy="380.939" rx="18.29" ry="16.01"/>
									<path style="fill:#E38A8A;" d="M432.749,377.017c6.009-3.64,13.055-2.998,15.739,1.432
										c2.684,4.431-0.011,10.973-6.02,14.613c-6.009,3.64-13.055,2.998-15.739-1.432
										C424.045,387.199,426.74,380.656,432.749,377.017z"/>
								</g>
								<g>
									
										<ellipse transform="matrix(0.9947 -0.1024 0.1024 0.9947 -40.6879 35.9056)" style="fill:#FDBAB2;" cx="329.301" cy="414.167" rx="18.289" ry="16.009"/>
									<path style="fill:#E38A8A;" d="M327.671,409.056c6.988-0.719,13.083,2.875,13.613,8.028
										c0.53,5.153-4.704,9.913-11.692,10.633s-13.083-2.875-13.613-8.028C315.448,414.536,320.683,409.776,327.671,409.056z"/>
								</g>
								<g>
									<path style="fill:#FDBAB2;" d="M436.21,373.02c-8.99-30.7-38.1-63.02-75-51.11c-30.65,9.89-45.9,53.16-36.92,83.87
										c8.99,30.7,39.7,34.02,70.42,24.36C424.82,420.68,445.2,403.73,436.21,373.02z"/>
									<path style="fill:#E38A8A;" d="M323.97,407.02c0.43-11.85,1.94-23.66,4.87-35.58c7.03-5.63,11.41-14.44,12.17-23.32
										c18.5,5.35,39.23,2.42,56.75-7.04c5.8,3.92,12.88,5.92,19.61,6.24c5.33,4.24,10.25,8.98,14.7,14.14
										c-2.72-15.07-15.64-26.92-30.23-31.55s-30.52-2.99-45.26,1.13c-10.88,3.04-21.79,7.67-29.27,16.14
										c-6.09,6.9-9.46,15.98-10.23,25.15C316.3,381.51,318.03,390.78,323.97,407.02z"/>
								</g>
								<g>
									<path style="fill:#F1583C;" d="M436.29,373.56c-4.08-10.82-10.32-20.6-18.55-28.27c-7.57-2.23-15.17-4.72-21.64-8.95
										c-17.97,9.93-38.86,12.07-57.57,6.48c-1.67,10.68-5.64,19.85-11.73,27.31c-3.01,14.18-3.25,30.24,0.47,44.06
										c-11.18-16.84-18.24-35.52-17.53-50.83c0.18-3.79,0.76-7.53,1.75-11.05c3.02-10.68,9.83-19.26,20.7-20.68
										c8.27-22.05,38.45-27.68,60.61-21.8c15.93,4.23,26.32,15.13,32.94,26.76C435.17,353.14,436.98,371.17,436.29,373.56z"/>
									<path style="opacity:0.6;fill:#FF9373;enable-background:new    ;" d="M425.74,336.59c-11.2-11.39-25.28-20.03-40.95-22.49
										c-19.43-3.06-41.13,4.94-50.97,21.97c-8.24,1.57-16.09,7.31-21.4,14.87c-0.32,0.45-0.63,0.91-0.93,1.37
										c3.02-10.68,9.83-19.26,20.7-20.68c8.27-22.05,38.45-27.68,60.61-21.8C408.73,314.06,419.12,324.96,425.74,336.59z"/>
								</g>
								<g>
									<path style="fill:#C96974;" d="M382.67,386.19c1.15,1.97,1.94,4.14,2.33,6.38c1.14-0.89,1.66-2.5,1.26-3.89
										C385.86,387.29,384.54,386.21,382.67,386.19z"/>
									<g>
										<path style="fill:#4D2238;" d="M400.75,411.44c-4.63,5.16-13.18,7.23-19.69,4.75c-6.16-2.35-9.96-8.54-9.13-14.6
											c0.47-0.4,0.88-0.75,1.34-1.14c9.32-0.71,18.57-3.03,27.1-6.78c0.44-0.19,0.87-0.38,1.31-0.59
											C405.68,398.47,405.38,406.26,400.75,411.44z"/>
										<path style="fill:#FFFFFF;" d="M400.37,393.66c-0.06,1.72-0.75,3.39-1.8,4.62c-1.77,2.06-4.37,3.16-6.98,4.05
											c-3.45,1.17-7.09,2.07-10.9,1.93c-3.01-0.11-6.14-0.92-8.88-2.57c0.16-0.59,0.15-0.58,0.31-1.17
											C381.83,399.92,391.49,397.57,400.37,393.66z"/>
									</g>
									<g>
										<path style="fill:#F1583C;" d="M391.82,352.64c0.81-3.7,3.99-6.65,7.64-7.67s7.65-0.29,11,1.48
											c3.35,1.77,6.1,4.52,8.1,7.78C410.7,348.76,399.46,348.71,391.82,352.64z"/>
										<path style="fill:#F1583C;" d="M352.4,368.3c-4.66-3.12-11.1-3.33-15.95-0.52c-4.85,2.81-7.88,8.5-7.59,16.25
											C333.93,375.71,342.83,369.83,352.4,368.3z"/>
									</g>
									<g>
										<g>
											<path style="fill:#1F1313;" d="M366.76,392.11c-9.19-8.6-24.71-3.02-22.09,11.19c-1.5-2.43-2.18-5.37-1.72-8.41
												c1.03-6.79,7.36-11.45,14.15-10.42C361.6,385.16,365.17,388.18,366.76,392.11z"/>
											<path style="fill:#1F1313;" d="M343.76,394.7c-2.56,0.83-5.55,0.16-7.5-1.7c0.98,2.61,3.88,4.35,6.65,3.92
												C343.23,396.08,343.56,395.23,343.76,394.7z"/>
											<path style="fill:#1F1313;" d="M343.37,398.73c-2.17,1.16-4.93,1.11-7.06-0.13c1.55,2.28,4.75,3.26,7.29,2.17
												C343.65,399.84,343.7,398.91,343.37,398.73z"/>
										</g>
										<g>
											<path style="fill:#1F1313;" d="M395.09,381.55c0.37-12.58,15.26-19.68,23.5-7.8c-0.67-2.77-2.28-5.33-4.76-7.14
												c-5.54-4.05-13.31-2.83-17.36,2.71C393.78,372.99,393.41,377.65,395.09,381.55z"/>
											<path style="fill:#1F1313;" d="M413.12,367.04c2.39-1.23,4.02-3.83,4.07-6.52c1.16,2.53,0.36,5.82-1.9,7.49
												C414.46,367.64,413.63,367.28,413.12,367.04z"/>
											<path style="fill:#1F1313;" d="M416.24,369.6c2.35-0.72,4.26-2.72,4.88-5.1c0.53,2.7-1.03,5.67-3.59,6.7
												C416.84,370.58,416.14,369.97,416.24,369.6z"/>
										</g>
									</g>
								</g>
							</g>
						</g>
						<path style="fill:#5E9139;" d="M293.88,418.13c-0.64-3.9,1.25-8.1,4.61-10.19c-3.18,0.26-6.11,2.54-7.14,5.57
							c-0.68-3.64-0.22-7.48,1.3-10.86c-3.05,2.11-5.07,5.64-5.35,9.34c-2.27-2.54-4.98-4.69-7.97-6.32
							c2.27,2.87,3.46,6.59,3.27,10.25C285.9,416.3,289.21,416.68,293.88,418.13z"/>
					</g>
				</g>
				<g>
					<path style="fill:#5E9139;" d="M53.57,266.87c-0.45-4.47,1.18-9.11,4.34-12.32c-1.99-0.91-4.43,0.03-5.91,1.64
						c-1.48,1.61-2.22,3.75-2.92,5.82c-1.28-3.6-1.73-7.49-1.31-11.29c-3.29,2.79-4.83,7.5-3.82,11.7c-2.25-2.7-5.84-4.22-9.34-3.96
						c4.05,1.8,6.91,6.03,7.07,10.46C45.17,268.43,48.68,267.95,53.57,266.87z"/>
					<path style="fill:#5E9139;" d="M24.54,438.6c-0.45-2.95,1.18-6.01,4.32-8.12c-1.98-0.6-4.41,0.02-5.89,1.08
						c-1.48,1.06-2.21,2.47-2.91,3.84c-1.27-2.37-1.72-4.94-1.31-7.44c-3.28,1.84-4.81,4.95-3.8,7.72c-2.24-1.78-5.81-2.78-9.3-2.61
						c4.04,1.19,6.88,3.97,7.04,6.9C16.17,439.63,19.67,439.31,24.54,438.6z"/>
					<path style="fill:#5E9139;" d="M483.24,377.52c1.14-4.17,2.96-8.15,5.36-11.74c-4.22-0.15-8.38,2.68-9.78,6.66
						c-0.77-3.39-0.89-6.93-0.33-10.37c-3.06,2.75-4.67,7.03-4.2,11.11c-1.76-1.24-3.89-1.95-6.04-2.01c2.37,2.32,3.88,5.5,4.17,8.8
						C475.69,379.45,478.97,378.92,483.24,377.52z"/>
					<path style="fill:#5E9139;" d="M465.82,223.83c1.14-4.17,2.96-8.15,5.36-11.74c-4.22-0.15-8.38,2.68-9.78,6.66
						c-0.77-3.39-0.89-6.93-0.33-10.37c-3.06,2.75-4.67,7.03-4.2,11.11c-1.76-1.24-3.89-1.95-6.04-2.01c2.37,2.32,3.88,5.5,4.17,8.8
						C458.27,225.75,461.54,225.22,465.82,223.83z"/>
					<path style="fill:#5E9139;" d="M260.57,48.9c-0.44-3.19-2.07-6.23-4.55-8.51c3.67-0.07,7.3,1.84,9.09,4.77
						c-0.51-1.92,0.11-4.06,1.6-5.49c1.49-1.43,3.8-2.1,5.92-1.73c-1.01,2.73-2.03,5.46-3.04,8.19c3.33-1.91,7.42-2.71,11.32-2.21
						c-3.11,1.89-5.52,4.71-6.76,7.93C269.44,50.32,264.32,49.88,260.57,48.9z"/>
				</g>
			</g>
			<g>
				
					<text transform="matrix(1 0 0 1 135.9825 261.127)" style="fill:#615AA6; font-family:'Gorditas-Regular'; font-size:35.7038px;">Dia das Crianças</text>
				
					<text transform="matrix(1 0 0 1 205.2579 301.5638)" style="fill:#615AA6; font-family:'Gorditas-Regular'; font-size:35.7038px;">No sitio!</text>
			</g>
		</g>
	</g>
</g>
</svg>
